<svg width="1101" height="1229" viewBox="0 0 1101 1229" fill="none" xmlns="http://www.w3.org/2000/svg">
<g opacity="0.5" clip-path="url(#clip0_2_253)" filter="url(#filter0_d_2_253)">
<mask id="mask0_2_253" style="mask-type:luminance" maskUnits="userSpaceOnUse" x="-124" y="0" width="1221" height="1221">
<path d="M1097 0H-124V1221H1097V0Z" fill="white"/>
</mask>
<g mask="url(#mask0_2_253)">
<path d="M283 407V99C283 44.3238 238.676 0 184 0H-25C-79.6762 0 -124 44.3239 -124 99V308C-124 362.676 -79.6761 407 -25 407H283ZM283 407H689.998M283 407V813.998M689.998 407V813.998M689.998 407H998C1052.68 407 1097 362.676 1097 308V99C1097 44.3239 1052.68 0 998 0H788.998C734.322 0 689.998 44.3238 689.998 99V407ZM283 813.998H-25C-79.6761 813.998 -124 858.322 -124 912.998V1122C-124 1176.68 -79.6762 1221 -25 1221H184C238.676 1221 283 1176.68 283 1122V813.998ZM283 813.998H689.998M689.998 813.998V1122C689.998 1176.68 734.322 1221 788.998 1221H998C1052.68 1221 1097 1176.68 1097 1122V912.998C1097 858.322 1052.68 813.998 998 813.998H689.998Z" stroke="#E50013" stroke-width="1.49333" stroke-miterlimit="10"/>
<path d="M283 407V99C283 44.3238 238.676 0 184 0H-25C-79.6762 0 -124 44.3239 -124 99V308C-124 362.676 -79.6761 407 -25 407H283ZM283 407H689.998M283 407V813.998M689.998 407V813.998M689.998 407H998C1052.68 407 1097 362.676 1097 308V99C1097 44.3239 1052.68 0 998 0H788.998C734.322 0 689.998 44.3238 689.998 99V407ZM283 813.998H-25C-79.6761 813.998 -124 858.322 -124 912.998V1122C-124 1176.68 -79.6762 1221 -25 1221H184C238.676 1221 283 1176.68 283 1122V813.998ZM283 813.998H689.998M689.998 813.998V1122C689.998 1176.68 734.322 1221 788.998 1221H998C1052.68 1221 1097 1176.68 1097 1122V912.998C1097 858.322 1052.68 813.998 998 813.998H689.998Z" stroke="url(#paint0_linear_2_253)" stroke-width="1.49333" stroke-miterlimit="10"/>
</g>
</g>
<defs>
<filter id="filter0_d_2_253" x="-128" y="0" width="1229" height="1229" filterUnits="userSpaceOnUse" color-interpolation-filters="sRGB">
<feFlood flood-opacity="0" result="BackgroundImageFix"/>
<feColorMatrix in="SourceAlpha" type="matrix" values="0 0 0 0 0 0 0 0 0 0 0 0 0 0 0 0 0 0 127 0" result="hardAlpha"/>
<feOffset dy="4"/>
<feGaussianBlur stdDeviation="2"/>
<feComposite in2="hardAlpha" operator="out"/>
<feColorMatrix type="matrix" values="0 0 0 0 0 0 0 0 0 0 0 0 0 0 0 0 0 0 0.25 0"/>
<feBlend mode="normal" in2="BackgroundImageFix" result="effect1_dropShadow_2_253"/>
<feBlend mode="normal" in="SourceGraphic" in2="effect1_dropShadow_2_253" result="shape"/>
</filter>
<linearGradient id="paint0_linear_2_253" x1="486.5" y1="0" x2="486.5" y2="1221" gradientUnits="userSpaceOnUse">
<stop offset="0.0125331" stop-color="white" stop-opacity="0"/>
<stop offset="1" stop-color="white"/>
</linearGradient>
<clipPath id="clip0_2_253">
<rect width="1221" height="1221" fill="white" transform="translate(-124)"/>
</clipPath>
</defs>
</svg>
