<svg width="500" height="947" viewBox="0 0 500 947" fill="none" xmlns="http://www.w3.org/2000/svg">
<path d="M785.377 634.207C759.49 660.093 717.514 660.093 691.628 634.207L577.34 519.914C551.449 494.028 551.449 452.056 577.34 426.168L691.628 311.877C717.514 285.989 759.49 285.989 785.377 311.877L899.67 426.167C925.556 452.056 925.556 494.028 899.67 519.914L785.377 634.207ZM254.455 634.207C228.567 660.093 186.594 660.093 160.706 634.207L46.4159 519.914C20.5281 494.028 20.528 452.056 46.4159 426.168L160.706 311.877C186.594 285.989 228.567 285.989 254.455 311.877L368.745 426.167C394.633 452.056 394.633 494.028 368.745 519.914L254.455 634.207ZM519.918 899.666C494.027 925.557 452.056 925.557 426.168 899.666L311.877 785.377C285.989 759.491 285.989 717.515 311.877 691.629L426.168 577.34C452.056 551.449 494.027 551.449 519.918 577.34L634.207 691.629C660.093 717.515 660.093 759.491 634.207 785.377L519.918 899.666ZM519.918 368.745C494.027 394.633 452.056 394.633 426.168 368.745L311.877 254.454C285.989 228.567 285.989 186.594 311.877 160.706L426.168 46.4159C452.056 20.5281 494.027 20.528 519.918 46.4159L634.207 160.706C660.093 186.594 660.093 228.567 634.207 254.454L519.918 368.745Z" fill="white"/>
<path d="M785.377 634.207C759.49 660.093 717.514 660.093 691.628 634.207L577.34 519.914C551.449 494.028 551.449 452.056 577.34 426.168L691.628 311.877C717.514 285.989 759.49 285.989 785.377 311.877L899.67 426.167C925.556 452.056 925.556 494.028 899.67 519.914L785.377 634.207ZM254.455 634.207C228.567 660.093 186.594 660.093 160.706 634.207L46.4159 519.914C20.5281 494.028 20.528 452.056 46.4159 426.168L160.706 311.877C186.594 285.989 228.567 285.989 254.455 311.877L368.745 426.167C394.633 452.056 394.633 494.028 368.745 519.914L254.455 634.207ZM519.918 899.666C494.027 925.557 452.056 925.557 426.168 899.666L311.877 785.377C285.989 759.491 285.989 717.515 311.877 691.629L426.168 577.34C452.056 551.449 494.027 551.449 519.918 577.34L634.207 691.629C660.093 717.515 660.093 759.491 634.207 785.377L519.918 899.666ZM519.918 368.745C494.027 394.633 452.056 394.633 426.168 368.745L311.877 254.454C285.989 228.567 285.989 186.594 311.877 160.706L426.168 46.4159C452.056 20.5281 494.027 20.528 519.918 46.4159L634.207 160.706C660.093 186.594 660.093 228.567 634.207 254.454L519.918 368.745Z" stroke="#E50013" stroke-width="1.49333" stroke-miterlimit="10"/>
<path d="M785.377 634.207C759.49 660.093 717.514 660.093 691.628 634.207L577.34 519.914C551.449 494.028 551.449 452.056 577.34 426.168L691.628 311.877C717.514 285.989 759.49 285.989 785.377 311.877L899.67 426.167C925.556 452.056 925.556 494.028 899.67 519.914L785.377 634.207ZM254.455 634.207C228.567 660.093 186.594 660.093 160.706 634.207L46.4159 519.914C20.5281 494.028 20.528 452.056 46.4159 426.168L160.706 311.877C186.594 285.989 228.567 285.989 254.455 311.877L368.745 426.167C394.633 452.056 394.633 494.028 368.745 519.914L254.455 634.207ZM519.918 899.666C494.027 925.557 452.056 925.557 426.168 899.666L311.877 785.377C285.989 759.491 285.989 717.515 311.877 691.629L426.168 577.34C452.056 551.449 494.027 551.449 519.918 577.34L634.207 691.629C660.093 717.515 660.093 759.491 634.207 785.377L519.918 899.666ZM519.918 368.745C494.027 394.633 452.056 394.633 426.168 368.745L311.877 254.454C285.989 228.567 285.989 186.594 311.877 160.706L426.168 46.4159C452.056 20.5281 494.027 20.528 519.918 46.4159L634.207 160.706C660.093 186.594 660.093 228.567 634.207 254.454L519.918 368.745Z" stroke="url(#paint0_linear_2_414)" stroke-width="1.49333" stroke-miterlimit="10"/>
<defs>
<linearGradient id="paint0_linear_2_414" x1="473.042" y1="27" x2="473.042" y2="919.084" gradientUnits="userSpaceOnUse">
<stop offset="0.0125331" stop-color="white" stop-opacity="0"/>
<stop offset="1" stop-color="white"/>
</linearGradient>
</defs>
</svg>
