<svg width="833" height="1643" viewBox="0 0 833 1643" fill="none" xmlns="http://www.w3.org/2000/svg">
<g filter="url(#filter0_d_2_416)">
<path fill-rule="evenodd" clip-rule="evenodd" d="M-398.286 1363.21C-401.868 1353.88 -410.399 1347.29 -420.328 1346.18C-506.361 1336.54 -586.793 1287.42 -633.125 1206.55C-679.457 1125.68 -681.154 1031.45 -645.953 952.357C-641.891 943.229 -643.262 932.536 -649.497 924.729C-703.518 857.082 -725.658 765.473 -701.235 675.526C-676.812 585.582 -611.38 517.75 -530.562 486.712C-521.235 483.13 -514.644 474.599 -513.532 464.671C-503.898 378.639 -454.776 298.208 -373.904 251.873C-293.033 205.544 -198.802 203.847 -119.71 239.046C-110.582 243.108 -99.8904 241.736 -92.0835 235.502C-24.436 181.48 67.1728 159.342 157.12 183.765C247.064 208.188 314.897 273.619 345.935 354.436C349.517 363.763 358.047 370.353 367.975 371.465C454.006 381.103 534.437 430.225 580.774 511.094C627.102 591.968 628.798 686.198 593.601 765.288C589.539 774.416 590.91 785.108 597.144 792.914C651.165 860.565 673.303 952.175 648.88 1042.12C624.457 1132.07 559.027 1199.9 478.21 1230.93C468.884 1234.51 462.293 1243.04 461.181 1252.97C451.543 1339.01 402.421 1419.44 321.552 1465.77C240.678 1512.1 146.448 1513.8 67.3586 1478.6C58.2309 1474.54 47.5387 1475.91 39.7315 1482.14C-27.9191 1536.16 -119.53 1558.3 -209.474 1533.88C-299.42 1509.46 -367.251 1444.03 -398.286 1363.21ZM113.859 1103.74C248.528 1026.59 295.156 854.861 218.006 720.187C140.849 585.512 -30.878 538.883 -165.554 616.04C-300.229 693.198 -346.857 864.923 -269.7 999.598C-192.543 1134.27 -20.8162 1180.9 113.859 1103.74Z" stroke="#E50013" stroke-width="1.49333" stroke-miterlimit="10"/>
<path fill-rule="evenodd" clip-rule="evenodd" d="M-398.286 1363.21C-401.868 1353.88 -410.399 1347.29 -420.328 1346.18C-506.361 1336.54 -586.793 1287.42 -633.125 1206.55C-679.457 1125.68 -681.154 1031.45 -645.953 952.357C-641.891 943.229 -643.262 932.536 -649.497 924.729C-703.518 857.082 -725.658 765.473 -701.235 675.526C-676.812 585.582 -611.38 517.75 -530.562 486.712C-521.235 483.13 -514.644 474.599 -513.532 464.671C-503.898 378.639 -454.776 298.208 -373.904 251.873C-293.033 205.544 -198.802 203.847 -119.71 239.046C-110.582 243.108 -99.8904 241.736 -92.0835 235.502C-24.436 181.48 67.1728 159.342 157.12 183.765C247.064 208.188 314.897 273.619 345.935 354.436C349.517 363.763 358.047 370.353 367.975 371.465C454.006 381.103 534.437 430.225 580.774 511.094C627.102 591.968 628.798 686.198 593.601 765.288C589.539 774.416 590.91 785.108 597.144 792.914C651.165 860.565 673.303 952.175 648.88 1042.12C624.457 1132.07 559.027 1199.9 478.21 1230.93C468.884 1234.51 462.293 1243.04 461.181 1252.97C451.543 1339.01 402.421 1419.44 321.552 1465.77C240.678 1512.1 146.448 1513.8 67.3586 1478.6C58.2309 1474.54 47.5387 1475.91 39.7315 1482.14C-27.9191 1536.16 -119.53 1558.3 -209.474 1533.88C-299.42 1509.46 -367.251 1444.03 -398.286 1363.21ZM113.859 1103.74C248.528 1026.59 295.156 854.861 218.006 720.187C140.849 585.512 -30.878 538.883 -165.554 616.04C-300.229 693.198 -346.857 864.923 -269.7 999.598C-192.543 1134.27 -20.8162 1180.9 113.859 1103.74Z" stroke="url(#paint0_linear_2_416)" stroke-width="1.49333" stroke-miterlimit="10"/>
</g>
<defs>
<filter id="filter0_d_2_416" x="-888.531" y="0.46875" width="1724.71" height="1724.71" filterUnits="userSpaceOnUse" color-interpolation-filters="sRGB">
<feFlood flood-opacity="0" result="BackgroundImageFix"/>
<feColorMatrix in="SourceAlpha" type="matrix" values="0 0 0 0 0 0 0 0 0 0 0 0 0 0 0 0 0 0 127 0" result="hardAlpha"/>
<feOffset dy="4"/>
<feGaussianBlur stdDeviation="2"/>
<feComposite in2="hardAlpha" operator="out"/>
<feColorMatrix type="matrix" values="0 0 0 0 0 0 0 0 0 0 0 0 0 0 0 0 0 0 0.25 0"/>
<feBlend mode="normal" in2="BackgroundImageFix" result="effect1_dropShadow_2_416"/>
<feBlend mode="normal" in="SourceGraphic" in2="effect1_dropShadow_2_416" result="shape"/>
</filter>
<linearGradient id="paint0_linear_2_416" x1="-701.235" y1="675.526" x2="247.5" y2="1217.5" gradientUnits="userSpaceOnUse">
<stop offset="0.0125331" stop-color="white" stop-opacity="0"/>
<stop offset="1" stop-color="white"/>
</linearGradient>
</defs>
</svg>
