<svg width="33" height="32" viewBox="0 0 33 32" fill="none" xmlns="http://www.w3.org/2000/svg">
<path d="M24.5 2.66666H8.5C7.43913 2.66666 6.42172 3.08808 5.67157 3.83823C4.92143 4.58838 4.5 5.60579 4.5 6.66666V21.3333C4.5 22.3942 4.92143 23.4116 5.67157 24.1618C6.42172 24.9119 7.43913 25.3333 8.5 25.3333H11.9533L15.5533 28.9467C15.6779 29.0702 15.8257 29.168 15.9881 29.2344C16.1506 29.3007 16.3245 29.3343 16.5 29.3333C16.8178 29.3333 17.1251 29.2199 17.3667 29.0133L21.66 25.3333H24.5C25.5609 25.3333 26.5783 24.9119 27.3284 24.1618C28.0786 23.4116 28.5 22.3942 28.5 21.3333V6.66666C28.5 5.60579 28.0786 4.58838 27.3284 3.83823C26.5783 3.08808 25.5609 2.66666 24.5 2.66666ZM25.8333 21.3333C25.8333 21.6869 25.6929 22.0261 25.4428 22.2761C25.1928 22.5262 24.8536 22.6667 24.5 22.6667H21.1667C20.8489 22.6666 20.5415 22.7801 20.3 22.9867L16.5667 26.1867L13.4467 23.0533C13.3221 22.9298 13.1743 22.832 13.0119 22.7656C12.8494 22.6993 12.6755 22.6656 12.5 22.6667H8.5C8.14638 22.6667 7.80724 22.5262 7.55719 22.2761C7.30714 22.0261 7.16667 21.6869 7.16667 21.3333V6.66666C7.16667 6.31303 7.30714 5.9739 7.55719 5.72385C7.80724 5.4738 8.14638 5.33332 8.5 5.33332H24.5C24.8536 5.33332 25.1928 5.4738 25.4428 5.72385C25.6929 5.9739 25.8333 6.31303 25.8333 6.66666V21.3333Z" fill="#E50013"/>
</svg>
