<svg width="887" height="927" viewBox="0 0 887 927" fill="none" xmlns="http://www.w3.org/2000/svg">
<g opacity="0.25" clip-path="url(#clip0_2_1715)">
<mask id="mask0_2_1715" style="mask-type:luminance" maskUnits="userSpaceOnUse" x="-334" y="-294" width="1221" height="1221">
<path d="M887 -294L-334 -294L-334 927L887 927L887 -294Z" fill="white"/>
</mask>
<g mask="url(#mask0_2_1715)">
<path d="M73.0002 113L73.0002 -195C73.0002 -249.676 28.6764 -294 -25.9998 -294L-235 -294C-289.676 -294 -334 -249.676 -334 -195L-334 14.0002C-334 68.6764 -289.676 113 -235 113L73.0002 113ZM73.0002 113L479.998 113M73.0002 113L73.0002 519.998M479.998 113V519.998M479.998 113L788 113C842.676 113 887 68.6764 887 14.0002V-195C887 -249.676 842.676 -294 788 -294H578.998C524.322 -294 479.998 -249.676 479.998 -195L479.998 113ZM73.0002 519.998L-235 519.998C-289.676 519.998 -334 564.322 -334 618.998V828C-334 882.676 -289.676 927 -235 927H-25.9998C28.6764 927 73.0002 882.676 73.0002 828L73.0002 519.998ZM73.0002 519.998H479.998M479.998 519.998L479.998 828C479.998 882.676 524.322 927 578.998 927H788C842.676 927 887 882.676 887 828V618.998C887 564.322 842.676 519.998 788 519.998L479.998 519.998Z" stroke="#E50013" stroke-width="1.49333" stroke-miterlimit="10"/>
<path d="M73.0002 113L73.0002 -195C73.0002 -249.676 28.6764 -294 -25.9998 -294L-235 -294C-289.676 -294 -334 -249.676 -334 -195L-334 14.0002C-334 68.6764 -289.676 113 -235 113L73.0002 113ZM73.0002 113L479.998 113M73.0002 113L73.0002 519.998M479.998 113V519.998M479.998 113L788 113C842.676 113 887 68.6764 887 14.0002V-195C887 -249.676 842.676 -294 788 -294H578.998C524.322 -294 479.998 -249.676 479.998 -195L479.998 113ZM73.0002 519.998L-235 519.998C-289.676 519.998 -334 564.322 -334 618.998V828C-334 882.676 -289.676 927 -235 927H-25.9998C28.6764 927 73.0002 882.676 73.0002 828L73.0002 519.998ZM73.0002 519.998H479.998M479.998 519.998L479.998 828C479.998 882.676 524.322 927 578.998 927H788C842.676 927 887 882.676 887 828V618.998C887 564.322 842.676 519.998 788 519.998L479.998 519.998Z" stroke="url(#paint0_linear_2_1715)" stroke-width="1.49333" stroke-miterlimit="10"/>
</g>
</g>
<defs>
<linearGradient id="paint0_linear_2_1715" x1="276.5" y1="-294" x2="276.5" y2="927" gradientUnits="userSpaceOnUse">
<stop offset="0.0125331" stop-color="white" stop-opacity="0"/>
<stop offset="1" stop-color="white"/>
</linearGradient>
<clipPath id="clip0_2_1715">
<rect width="1221" height="1221" fill="white" transform="translate(-334 -294)"/>
</clipPath>
</defs>
</svg>
