<svg width="997" height="542" viewBox="0 0 997 542" fill="none" xmlns="http://www.w3.org/2000/svg">
<g clip-path="url(#clip0_2_2121)">
<path fill-rule="evenodd" clip-rule="evenodd" d="M351.737 771.496C289.555 663.794 299.296 534.417 366.114 439.476C386.153 411.004 392.524 373.36 375.116 343.208V343.208C351.875 302.953 297.59 292.995 268.084 328.911C151.998 470.219 129.462 674.985 226.821 843.616C324.18 1012.25 512.781 1095.11 693.199 1065.23C739.057 1057.64 757.575 1005.65 734.334 965.391V965.391C716.925 935.239 681.138 921.935 646.461 925.053C530.832 935.449 413.917 879.195 351.737 771.496ZM1007.55 392.865C1104.9 561.494 1082.37 766.261 966.282 907.568C936.776 943.484 882.491 933.525 859.25 893.271V893.271C841.841 863.119 848.214 825.474 868.252 797.002C935.07 702.062 944.81 572.684 882.63 464.985C820.448 357.283 703.534 301.029 587.904 311.426C553.227 314.543 517.44 301.24 500.032 271.088V271.088C476.791 230.833 495.309 178.841 541.167 171.247C721.586 141.367 910.186 224.233 1007.55 392.865Z" stroke="#E50013" stroke-width="1.49333" stroke-miterlimit="10"/>
<path fill-rule="evenodd" clip-rule="evenodd" d="M351.737 771.496C289.555 663.794 299.296 534.417 366.114 439.476C386.153 411.004 392.524 373.36 375.116 343.208V343.208C351.875 302.953 297.59 292.995 268.084 328.911C151.998 470.219 129.462 674.985 226.821 843.616C324.18 1012.25 512.781 1095.11 693.199 1065.23C739.057 1057.64 757.575 1005.65 734.334 965.391V965.391C716.925 935.239 681.138 921.935 646.461 925.053C530.832 935.449 413.917 879.195 351.737 771.496ZM1007.55 392.865C1104.9 561.494 1082.37 766.261 966.282 907.568C936.776 943.484 882.491 933.525 859.25 893.271V893.271C841.841 863.119 848.214 825.474 868.252 797.002C935.07 702.062 944.81 572.684 882.63 464.985C820.448 357.283 703.534 301.029 587.904 311.426C553.227 314.543 517.44 301.24 500.032 271.088V271.088C476.791 230.833 495.309 178.841 541.167 171.247C721.586 141.367 910.186 224.233 1007.55 392.865Z" stroke="url(#paint0_linear_2_2121)" stroke-width="1.49333" stroke-miterlimit="10"/>
</g>
<defs>
<linearGradient id="paint0_linear_2_2121" x1="393.251" y1="230.378" x2="841.115" y2="1006.1" gradientUnits="userSpaceOnUse">
<stop offset="0.0125331" stop-color="white" stop-opacity="0"/>
<stop offset="1" stop-color="white"/>
</linearGradient>
<clipPath id="clip0_2_2121">
<rect width="901.503" height="901.503" fill="white" transform="translate(0 450.752) rotate(-30)"/>
</clipPath>
</defs>
</svg>
