<svg width="226" height="184" viewBox="0 0 226 184" fill="none" xmlns="http://www.w3.org/2000/svg">
<g clip-path="url(#clip0_2_209)">
<path fill-rule="evenodd" clip-rule="evenodd" d="M191.995 167.491C182.76 156.832 181.259 140.187 187.388 127.486C192.578 116.731 195.488 104.668 195.488 91.925C195.488 46.6791 158.81 10 113.563 10C68.3173 10 31.6382 46.6791 31.6382 91.925C31.6382 104.38 34.4175 116.186 39.3897 126.756C45.3929 139.517 43.7288 156.147 34.3899 166.715C22.8052 179.825 14.4548 195.86 10.5883 213.571C7.92597 225.764 18.2978 236 30.7795 236H194.927C207.409 236 217.781 225.766 215.119 213.571C211.327 196.208 203.228 180.455 191.995 167.491Z" stroke="#E50013" stroke-width="1.49333" stroke-miterlimit="10"/>
<path fill-rule="evenodd" clip-rule="evenodd" d="M191.995 167.491C182.76 156.832 181.259 140.187 187.388 127.486C192.578 116.731 195.488 104.668 195.488 91.925C195.488 46.6791 158.81 10 113.563 10C68.3173 10 31.6382 46.6791 31.6382 91.925C31.6382 104.38 34.4175 116.186 39.3897 126.756C45.3929 139.517 43.7288 156.147 34.3899 166.715C22.8052 179.825 14.4548 195.86 10.5883 213.571C7.92597 225.764 18.2978 236 30.7795 236H194.927C207.409 236 217.781 225.766 215.119 213.571C211.327 196.208 203.228 180.455 191.995 167.491Z" stroke="url(#paint0_linear_2_209)" stroke-width="1.49333" stroke-miterlimit="10"/>
<path fill-rule="evenodd" clip-rule="evenodd" d="M191.999 167.491C182.764 156.832 181.263 140.187 187.392 127.486C192.582 116.731 195.492 104.668 195.492 91.925C195.492 46.6791 158.813 10 113.567 10C68.3212 10 31.6421 46.6791 31.6421 91.925C31.6421 104.38 34.4214 116.186 39.3937 126.756C45.3968 139.517 43.7327 156.147 34.3939 166.715C22.8091 179.825 14.4587 195.86 10.5922 213.571C7.92988 225.764 18.3018 236 30.7834 236H194.93C207.412 236 217.785 225.766 215.122 213.571C211.331 196.208 203.231 180.455 191.999 167.491Z" stroke="#E50013" stroke-width="1.49333" stroke-miterlimit="10"/>
</g>
<defs>
<linearGradient id="paint0_linear_2_209" x1="112.853" y1="10" x2="112.853" y2="236" gradientUnits="userSpaceOnUse">
<stop offset="0.0125331" stop-color="white" stop-opacity="0"/>
<stop offset="1" stop-color="white"/>
</linearGradient>
<clipPath id="clip0_2_209">
<rect width="226" height="236" fill="white"/>
</clipPath>
</defs>
</svg>
