<svg width="32" height="32" viewBox="0 0 32 32" fill="none" xmlns="http://www.w3.org/2000/svg">
<path d="M16.0001 11.1333C15.2382 10.7427 14.3731 10.6008 13.5264 10.7276C12.6797 10.8543 11.8941 11.2434 11.2801 11.84C10.531 12.59 10.1103 13.6067 10.1103 14.6667C10.1103 15.7267 10.531 16.7433 11.2801 17.4933L15.0534 21.3333C15.1773 21.4583 15.3248 21.5575 15.4873 21.6252C15.6498 21.6929 15.824 21.7277 16.0001 21.7277C16.1761 21.7277 16.3504 21.6929 16.5128 21.6252C16.6753 21.5575 16.8228 21.4583 16.9467 21.3333L20.7201 17.56C21.4691 16.81 21.8899 15.7933 21.8899 14.7333C21.8899 13.6733 21.4691 12.6567 20.7201 11.9067C20.1137 11.2992 19.3318 10.8977 18.4848 10.7589C17.6378 10.6201 16.7686 10.7511 16.0001 11.1333ZM18.8267 15.6133L16.0001 18.44L13.1734 15.6133C13.0484 15.4894 12.9492 15.3419 12.8815 15.1794C12.8139 15.0169 12.779 14.8427 12.779 14.6667C12.779 14.4906 12.8139 14.3164 12.8815 14.1539C12.9492 13.9914 13.0484 13.8439 13.1734 13.72C13.4232 13.4717 13.7612 13.3323 14.1134 13.3323C14.4656 13.3323 14.8036 13.4717 15.0534 13.72C15.1773 13.845 15.3248 13.9442 15.4873 14.0118C15.6498 14.0795 15.824 14.1144 16.0001 14.1144C16.1761 14.1144 16.3504 14.0795 16.5128 14.0118C16.6753 13.9442 16.8228 13.845 16.9467 13.72C17.1965 13.4717 17.5345 13.3323 17.8867 13.3323C18.239 13.3323 18.5769 13.4717 18.8267 13.72C18.9517 13.8439 19.0509 13.9914 19.1186 14.1539C19.1863 14.3164 19.2211 14.4906 19.2211 14.6667C19.2211 14.8427 19.1863 15.0169 19.1186 15.1794C19.0509 15.3419 18.9517 15.4894 18.8267 15.6133ZM16.0001 2.66666C14.2491 2.66666 12.5153 3.01153 10.8976 3.6816C9.27994 4.35166 7.81009 5.33379 6.57197 6.5719C4.07149 9.07238 2.66673 12.4638 2.66673 16C2.65508 19.0788 3.72112 22.0647 5.68007 24.44L3.0134 27.1067C2.82839 27.2942 2.70306 27.5323 2.65323 27.7909C2.6034 28.0496 2.63129 28.3172 2.7334 28.56C2.84414 28.7999 3.02367 29.0015 3.24919 29.1392C3.47472 29.2769 3.73607 29.3444 4.00007 29.3333H16.0001C19.5363 29.3333 22.9277 27.9286 25.4282 25.4281C27.9286 22.9276 29.3334 19.5362 29.3334 16C29.3334 12.4638 27.9286 9.07238 25.4282 6.5719C22.9277 4.07141 19.5363 2.66666 16.0001 2.66666ZM16.0001 26.6667H7.2134L8.4534 25.4267C8.70173 25.1768 8.84112 24.8389 8.84112 24.4867C8.84112 24.1344 8.70173 23.7965 8.4534 23.5467C6.70751 21.8027 5.6203 19.5074 5.37699 17.0517C5.13368 14.5961 5.74932 12.132 7.11903 10.0794C8.48875 8.02671 10.5278 6.51247 12.8888 5.79462C15.2497 5.07677 17.7865 5.19973 20.067 6.14254C22.3475 7.08535 24.2305 8.78969 25.3953 10.9652C26.5601 13.1407 26.9346 15.6527 26.4549 18.0733C25.9752 20.494 24.6711 22.6734 22.7648 24.2403C20.8584 25.8072 18.4677 26.6647 16.0001 26.6667Z" fill="#E50013"/>
</svg>
