<svg width="32" height="32" viewBox="0 0 32 32" fill="none" xmlns="http://www.w3.org/2000/svg">
<path d="M18.6667 14.6667H17.3333V13.3333C17.3333 12.9797 17.1929 12.6406 16.9428 12.3905C16.6928 12.1405 16.3536 12 16 12C15.6464 12 15.3072 12.1405 15.0572 12.3905C14.8071 12.6406 14.6667 12.9797 14.6667 13.3333V14.6667H13.3333C12.9797 14.6667 12.6406 14.8071 12.3905 15.0572C12.1405 15.3072 12 15.6464 12 16C12 16.3536 12.1405 16.6928 12.3905 16.9428C12.6406 17.1929 12.9797 17.3333 13.3333 17.3333H14.6667V18.6667C14.6667 19.0203 14.8071 19.3594 15.0572 19.6095C15.3072 19.8595 15.6464 20 16 20C16.3536 20 16.6928 19.8595 16.9428 19.6095C17.1929 19.3594 17.3333 19.0203 17.3333 18.6667V17.3333H18.6667C19.0203 17.3333 19.3594 17.1929 19.6095 16.9428C19.8595 16.6928 20 16.3536 20 16C20 15.6464 19.8595 15.3072 19.6095 15.0572C19.3594 14.8071 19.0203 14.6667 18.6667 14.6667ZM28.9467 15.0533L25.8133 12V7.52C25.8133 7.16638 25.6729 6.82724 25.4228 6.57719C25.1728 6.32714 24.8336 6.18667 24.48 6.18667H20.0667L16.9467 3.05333C16.8227 2.92836 16.6752 2.82917 16.5128 2.76148C16.3503 2.69379 16.176 2.65894 16 2.65894C15.824 2.65894 15.6497 2.69379 15.4872 2.76148C15.3248 2.82917 15.1773 2.92836 15.0533 3.05333L12 6.18667H7.52C7.16638 6.18667 6.82724 6.32714 6.57719 6.57719C6.32714 6.82724 6.18667 7.16638 6.18667 7.52V12L3.05333 15.0533C2.92836 15.1773 2.82917 15.3248 2.76148 15.4872C2.69379 15.6497 2.65894 15.824 2.65894 16C2.65894 16.176 2.69379 16.3503 2.76148 16.5128C2.82917 16.6752 2.92836 16.8227 3.05333 16.9467L6.18667 20.0667V24.48C6.18667 24.8336 6.32714 25.1728 6.57719 25.4228C6.82724 25.6729 7.16638 25.8133 7.52 25.8133H12L15.12 28.9467C15.244 29.0716 15.3914 29.1708 15.5539 29.2385C15.7164 29.3062 15.8907 29.3411 16.0667 29.3411C16.2427 29.3411 16.417 29.3062 16.5794 29.2385C16.7419 29.1708 16.8894 29.0716 17.0133 28.9467L20.1333 25.8133H24.5467C24.9003 25.8133 25.2394 25.6729 25.4895 25.4228C25.7395 25.1728 25.88 24.8336 25.88 24.48V20.0667L29.0133 16.9467C29.134 16.8184 29.2281 16.6674 29.2902 16.5026C29.3522 16.3377 29.3809 16.1621 29.3747 15.9861C29.3685 15.8101 29.3275 15.637 29.254 15.4769C29.1806 15.3168 29.0761 15.1728 28.9467 15.0533ZM23.5467 18.5733C23.4207 18.6968 23.3205 18.8441 23.2518 19.0066C23.1831 19.1691 23.1474 19.3436 23.1467 19.52V23.1467H19.52C19.3436 23.1474 19.1691 23.1831 19.0066 23.2518C18.8441 23.3205 18.6968 23.4207 18.5733 23.5467L16 26.12L13.4267 23.5467C13.3032 23.4207 13.1559 23.3205 12.9934 23.2518C12.8309 23.1831 12.6564 23.1474 12.48 23.1467H8.85333V19.52C8.8526 19.3436 8.81687 19.1691 8.74821 19.0066C8.67954 18.8441 8.57932 18.6968 8.45333 18.5733L5.88 16L8.45333 13.4267C8.57932 13.3032 8.67954 13.1559 8.74821 12.9934C8.81687 12.8309 8.8526 12.6564 8.85333 12.48V8.85333H12.48C12.6564 8.8526 12.8309 8.81687 12.9934 8.74821C13.1559 8.67954 13.3032 8.57932 13.4267 8.45333L16 5.88L18.5733 8.45333C18.6968 8.57932 18.8441 8.67954 19.0066 8.74821C19.1691 8.81687 19.3436 8.8526 19.52 8.85333H23.1467V12.48C23.1474 12.6564 23.1831 12.8309 23.2518 12.9934C23.3205 13.1559 23.4207 13.3032 23.5467 13.4267L26.12 16L23.5467 18.5733Z" fill="#E50013"/>
</svg>
