<svg width="373" height="191" viewBox="0 0 373 191" fill="none" xmlns="http://www.w3.org/2000/svg">
<g opacity="0.5" clip-path="url(#clip0_2_1638)">
<mask id="mask0_2_1638" style="mask-type:luminance" maskUnits="userSpaceOnUse" x="0" y="-348" width="539" height="539">
<path d="M539 -348H0V191H539V-348Z" fill="white"/>
</mask>
<g mask="url(#mask0_2_1638)">
<path d="M179.667 -168.333V-304.297C179.667 -328.434 160.1 -348 135.964 -348H43.7027C19.5664 -348 0 -328.434 0 -304.297V-212.036C0 -187.9 19.5663 -168.333 43.7026 -168.333H179.667ZM179.667 -168.333H359.332M179.667 -168.333V11.3324M359.332 -168.333V11.3324M359.332 -168.333H495.297C519.434 -168.333 539 -187.9 539 -212.036V-304.297C539 -328.434 519.434 -348 495.297 -348H403.035C378.899 -348 359.332 -328.434 359.332 -304.297V-168.333ZM179.667 11.3324H43.7026C19.5663 11.3324 0 30.8988 0 55.0351V147.297C0 171.434 19.5664 191 43.7027 191H135.964C160.1 191 179.667 171.434 179.667 147.297V11.3324ZM179.667 11.3324H359.332M359.332 11.3324V147.297C359.332 171.434 378.899 191 403.035 191H495.297C519.434 191 539 171.434 539 147.297V55.0351C539 30.8988 519.434 11.3324 495.297 11.3324H359.332Z" stroke="#E50013" stroke-width="0.659219" stroke-miterlimit="10"/>
<path d="M179.667 -168.333V-304.297C179.667 -328.434 160.1 -348 135.964 -348H43.7027C19.5664 -348 0 -328.434 0 -304.297V-212.036C0 -187.9 19.5663 -168.333 43.7026 -168.333H179.667ZM179.667 -168.333H359.332M179.667 -168.333V11.3324M359.332 -168.333V11.3324M359.332 -168.333H495.297C519.434 -168.333 539 -187.9 539 -212.036V-304.297C539 -328.434 519.434 -348 495.297 -348H403.035C378.899 -348 359.332 -328.434 359.332 -304.297V-168.333ZM179.667 11.3324H43.7026C19.5663 11.3324 0 30.8988 0 55.0351V147.297C0 171.434 19.5664 191 43.7027 191H135.964C160.1 191 179.667 171.434 179.667 147.297V11.3324ZM179.667 11.3324H359.332M359.332 11.3324V147.297C359.332 171.434 378.899 191 403.035 191H495.297C519.434 191 539 171.434 539 147.297V55.0351C539 30.8988 519.434 11.3324 495.297 11.3324H359.332Z" stroke="url(#paint0_linear_2_1638)" stroke-width="0.659219" stroke-miterlimit="10"/>
</g>
</g>
<defs>
<linearGradient id="paint0_linear_2_1638" x1="269.5" y1="-348" x2="269.5" y2="191" gradientUnits="userSpaceOnUse">
<stop offset="0.0125331" stop-color="white" stop-opacity="0"/>
<stop offset="1" stop-color="white"/>
</linearGradient>
<clipPath id="clip0_2_1638">
<rect width="373" height="191" fill="white"/>
</clipPath>
</defs>
</svg>
