<svg width="32" height="32" viewBox="0 0 32 32" fill="none" xmlns="http://www.w3.org/2000/svg">
<path d="M16.0001 2.66675C13.363 2.66675 10.7851 3.44873 8.59248 4.91382C6.39983 6.37891 4.69086 8.46129 3.68169 10.8976C2.67253 13.334 2.40848 16.0149 2.92295 18.6013C3.43742 21.1877 4.7073 23.5635 6.572 25.4282C8.4367 27.2929 10.8125 28.5627 13.3989 29.0772C15.9853 29.5917 18.6662 29.3276 21.1025 28.3185C23.5389 27.3093 25.6213 25.6003 27.0863 23.4077C28.5514 21.215 29.3334 18.6372 29.3334 16.0001C29.3334 14.2491 28.9885 12.5153 28.3185 10.8976C27.6484 9.27996 26.6663 7.81011 25.4282 6.57199C24.1901 5.33388 22.7202 4.35175 21.1025 3.68169C19.4849 3.01162 17.751 2.66675 16.0001 2.66675ZM16.0001 26.6667C13.8904 26.6667 11.8281 26.0412 10.074 24.8691C8.31988 23.697 6.95271 22.0311 6.14537 20.082C5.33804 18.133 5.1268 15.9882 5.53838 13.9191C5.94995 11.85 6.96586 9.94937 8.45761 8.45761C9.94938 6.96585 11.85 5.94995 13.9191 5.53837C15.9883 5.1268 18.133 5.33803 20.082 6.14537C22.0311 6.9527 23.697 8.31987 24.8691 10.074C26.0412 11.8281 26.6668 13.8904 26.6668 16.0001C26.6668 18.8291 25.5429 21.5422 23.5426 23.5426C21.5422 25.5429 18.8291 26.6667 16.0001 26.6667ZM21.3334 14.6667H17.3334V10.6667C17.3334 10.3131 17.1929 9.97399 16.9429 9.72394C16.6928 9.47389 16.3537 9.33342 16.0001 9.33342C15.6465 9.33342 15.3073 9.47389 15.0573 9.72394C14.8072 9.97399 14.6668 10.3131 14.6668 10.6667V14.6667H10.6668C10.3131 14.6667 9.97399 14.8072 9.72395 15.0573C9.4739 15.3073 9.33342 15.6465 9.33342 16.0001C9.33342 16.3537 9.4739 16.6928 9.72395 16.9429C9.97399 17.1929 10.3131 17.3334 10.6668 17.3334H14.6668V21.3334C14.6668 21.687 14.8072 22.0262 15.0573 22.2762C15.3073 22.5263 15.6465 22.6667 16.0001 22.6667C16.3537 22.6667 16.6928 22.5263 16.9429 22.2762C17.1929 22.0262 17.3334 21.687 17.3334 21.3334V17.3334H21.3334C21.687 17.3334 22.0262 17.1929 22.2762 16.9429C22.5263 16.6928 22.6668 16.3537 22.6668 16.0001C22.6668 15.6465 22.5263 15.3073 22.2762 15.0573C22.0262 14.8072 21.687 14.6667 21.3334 14.6667Z" fill="black"/>
</svg>
