<svg width="427" height="164" viewBox="0 0 427 164" fill="none" xmlns="http://www.w3.org/2000/svg">
<g clip-path="url(#clip0_2_218)" filter="url(#filter0_d_2_218)">
<mask id="mask0_2_218" style="mask-type:luminance" maskUnits="userSpaceOnUse" x="4" y="0" width="546" height="546">
<path d="M550 0H4V546H550V0Z" fill="white"/>
</mask>
<g mask="url(#mask0_2_218)">
<path d="M549.253 273C549.253 423.36 427.36 545.253 277 545.253C126.639 545.253 4.74667 423.36 4.74667 273C4.74667 122.639 126.639 0.746667 277 0.746667C427.36 0.746667 549.253 122.639 549.253 273ZM277 513.987C410.093 513.987 517.987 406.093 517.987 273C517.987 139.907 410.093 32.0133 277 32.0133C143.907 32.0133 36.0133 139.907 36.0133 273C36.0133 406.093 143.907 513.987 277 513.987ZM483.733 273C483.733 387.177 391.177 479.733 277 479.733C162.824 479.733 70.2667 387.177 70.2667 273C70.2667 158.824 162.824 66.2667 277 66.2667C391.177 66.2667 483.733 158.824 483.733 273ZM277 448.467C373.907 448.467 452.467 369.907 452.467 273C452.467 176.093 373.907 97.5333 277 97.5333C180.093 97.5333 101.533 176.093 101.533 273C101.533 369.907 180.093 448.467 277 448.467ZM418.213 273C418.213 350.99 354.99 414.213 277 414.213C199.01 414.213 135.787 350.99 135.787 273C135.787 195.01 199.01 131.787 277 131.787C354.99 131.787 418.213 195.01 418.213 273ZM277 382.947C337.721 382.947 386.947 333.721 386.947 273C386.947 212.278 337.721 163.053 277 163.053C216.278 163.053 167.053 212.278 167.053 273C167.053 333.721 216.278 382.947 277 382.947Z" stroke="#E50013" stroke-width="1.49333" stroke-miterlimit="10"/>
<path d="M549.253 273C549.253 423.36 427.36 545.253 277 545.253C126.639 545.253 4.74667 423.36 4.74667 273C4.74667 122.639 126.639 0.746667 277 0.746667C427.36 0.746667 549.253 122.639 549.253 273ZM277 513.987C410.093 513.987 517.987 406.093 517.987 273C517.987 139.907 410.093 32.0133 277 32.0133C143.907 32.0133 36.0133 139.907 36.0133 273C36.0133 406.093 143.907 513.987 277 513.987ZM483.733 273C483.733 387.177 391.177 479.733 277 479.733C162.824 479.733 70.2667 387.177 70.2667 273C70.2667 158.824 162.824 66.2667 277 66.2667C391.177 66.2667 483.733 158.824 483.733 273ZM277 448.467C373.907 448.467 452.467 369.907 452.467 273C452.467 176.093 373.907 97.5333 277 97.5333C180.093 97.5333 101.533 176.093 101.533 273C101.533 369.907 180.093 448.467 277 448.467ZM418.213 273C418.213 350.99 354.99 414.213 277 414.213C199.01 414.213 135.787 350.99 135.787 273C135.787 195.01 199.01 131.787 277 131.787C354.99 131.787 418.213 195.01 418.213 273ZM277 382.947C337.721 382.947 386.947 333.721 386.947 273C386.947 212.278 337.721 163.053 277 163.053C216.278 163.053 167.053 212.278 167.053 273C167.053 333.721 216.278 382.947 277 382.947Z" stroke="url(#paint0_linear_2_218)" stroke-width="1.49333" stroke-miterlimit="10"/>
</g>
</g>
<defs>
<filter id="filter0_d_2_218" x="0" y="0" width="554" height="554" filterUnits="userSpaceOnUse" color-interpolation-filters="sRGB">
<feFlood flood-opacity="0" result="BackgroundImageFix"/>
<feColorMatrix in="SourceAlpha" type="matrix" values="0 0 0 0 0 0 0 0 0 0 0 0 0 0 0 0 0 0 127 0" result="hardAlpha"/>
<feOffset dy="4"/>
<feGaussianBlur stdDeviation="2"/>
<feComposite in2="hardAlpha" operator="out"/>
<feColorMatrix type="matrix" values="0 0 0 0 0 0 0 0 0 0 0 0 0 0 0 0 0 0 0.25 0"/>
<feBlend mode="normal" in2="BackgroundImageFix" result="effect1_dropShadow_2_218"/>
<feBlend mode="normal" in="SourceGraphic" in2="effect1_dropShadow_2_218" result="shape"/>
</filter>
<linearGradient id="paint0_linear_2_218" x1="277" y1="0" x2="277" y2="546" gradientUnits="userSpaceOnUse">
<stop offset="0.0125331" stop-color="white" stop-opacity="0"/>
<stop offset="1" stop-color="white"/>
</linearGradient>
<clipPath id="clip0_2_218">
<rect width="546" height="546" fill="white" transform="translate(4)"/>
</clipPath>
</defs>
</svg>
