<svg width="424" height="285" viewBox="0 0 424 285" fill="none" xmlns="http://www.w3.org/2000/svg">
<g clip-path="url(#clip0_2_183)">
<path fill-rule="evenodd" clip-rule="evenodd" d="M122.745 396.444C90.7923 341.1 95.7976 274.617 130.133 225.831C140.43 211.2 143.704 191.856 134.759 176.362V176.362C122.816 155.677 94.9209 150.559 79.7589 169.016C20.1064 241.628 8.52584 346.85 58.5555 433.504C108.584 520.157 205.5 562.739 298.211 547.385C321.775 543.482 331.291 516.766 319.348 496.08V496.08C310.403 480.586 292.013 473.75 274.194 475.352C214.776 480.694 154.697 451.787 122.745 396.444ZM459.742 201.879C509.771 288.532 498.191 393.754 438.538 466.367C423.376 484.823 395.481 479.706 383.538 459.02V459.02C374.593 443.526 377.867 424.182 388.164 409.551C422.5 360.764 427.504 294.282 395.552 238.939C363.599 183.595 303.521 154.688 244.103 160.03C226.284 161.632 207.894 154.796 198.949 139.302V139.302C187.006 118.617 196.522 91.8999 220.087 87.9973C312.798 72.643 409.713 115.225 459.742 201.879Z" stroke="#E50013" stroke-width="1.49333" stroke-miterlimit="10"/>
<path fill-rule="evenodd" clip-rule="evenodd" d="M122.745 396.444C90.7923 341.1 95.7976 274.617 130.133 225.831C140.43 211.2 143.704 191.856 134.759 176.362V176.362C122.816 155.677 94.9209 150.559 79.7589 169.016C20.1064 241.628 8.52584 346.85 58.5555 433.504C108.584 520.157 205.5 562.739 298.211 547.385C321.775 543.482 331.291 516.766 319.348 496.08V496.08C310.403 480.586 292.013 473.75 274.194 475.352C214.776 480.694 154.697 451.787 122.745 396.444ZM459.742 201.879C509.771 288.532 498.191 393.754 438.538 466.367C423.376 484.823 395.481 479.706 383.538 459.02V459.02C374.593 443.526 377.867 424.182 388.164 409.551C422.5 360.764 427.504 294.282 395.552 238.939C363.599 183.595 303.521 154.688 244.103 160.03C226.284 161.632 207.894 154.796 198.949 139.302V139.302C187.006 118.617 196.522 91.8999 220.087 87.9973C312.798 72.643 409.713 115.225 459.742 201.879Z" stroke="url(#paint0_linear_2_183)" stroke-width="1.49333" stroke-miterlimit="10"/>
</g>
<defs>
<linearGradient id="paint0_linear_2_183" x1="144.078" y1="118.383" x2="374.219" y2="516.999" gradientUnits="userSpaceOnUse">
<stop offset="0.0125331" stop-color="white" stop-opacity="0"/>
<stop offset="1" stop-color="white"/>
</linearGradient>
<clipPath id="clip0_2_183">
<rect width="463.251" height="463.251" fill="white" transform="translate(-58 231.625) rotate(-30)"/>
</clipPath>
</defs>
</svg>
